<svg xmlns="http://www.w3.org/2000/svg" width="216" height="228.64" viewBox="0 0 216 228.64">
  <g id="Grupo_19" data-name="Grupo 19" transform="translate(-72 -184.513)">
    <path id="Trazado_996" data-name="Trazado 996" d="M30.742,323.017,56.86,154-7.1,156.236-104.05,327.724Z" transform="matrix(-0.999, -0.035, 0.035, -0.999, 123.45, 555.893)" fill="#212121"/>
    <path id="Trazado_997" data-name="Trazado 997" d="M35.011-.91,61.128,168.1l-63.961-2.234L15.05-1.607Z" transform="matrix(0.999, -0.035, 0.035, 0.999, 221.042, 234.132)" fill="#212121"/>
    <path id="Trazado_994" data-name="Trazado 994" d="M8.7,0H134.541l35.681,177.757H-18.97Z" transform="translate(108.374 235.396)" fill="#333"/>
    <text id="Fashion_Men_" data-name="Fashion
Men
" transform="translate(184 326)" fill="#fff" font-size="35" font-family="ArialMT, Arial"><tspan x="-62.258" y="0">Fashion</tspan><tspan x="-34.043" y="40">Men</tspan><tspan x="0" y="80"></tspan></text>
    <path id="Trazado_995" data-name="Trazado 995" d="M0,50.379S-1.542,28.573,8.054,12.972C12.922,5.054,21.082-1.286,34.271-1.483c37.9-.564,36.382,51.862,36.382,51.862" transform="translate(144.5 187.5)" fill="none" stroke="#212121" stroke-linecap="round" stroke-width="3"/>
  </g>
</svg>
